<svg width="130" height="130" viewBox="0 0 130 130" fill="none" xmlns="http://www.w3.org/2000/svg">
<path fill-rule="evenodd" clip-rule="evenodd" d="M130 126V0L0 130H126C128.209 130 130 128.209 130 126ZM95.475 87.9391L99.061 91.5251C99.7162 92.1822 100.084 93.0722 100.084 94.0001C100.084 94.928 99.7162 95.8181 99.061 96.4751L95.475 100.061C95.1936 100.342 94.812 100.5 94.4141 100.5C94.0163 100.5 93.6348 100.342 93.3535 100.061C93.0722 99.7792 92.9143 99.3976 92.9144 98.9998C92.9145 98.6019 93.0726 98.2204 93.354 97.9391L95.793 95.5001H87C86.6022 95.5001 86.2206 95.3421 85.9393 95.0608C85.658 94.7795 85.5 94.3979 85.5 94.0001C85.5 93.6023 85.658 93.2208 85.9393 92.9395C86.2206 92.6582 86.6022 92.5001 87 92.5001H95.793L93.354 90.0611C93.0726 89.7799 92.9145 89.3983 92.9144 89.0005C92.9143 88.6026 93.0722 88.221 93.3535 87.9396C93.6348 87.6582 94.0163 87.5001 94.4141 87.5C94.812 87.4999 95.1936 87.6579 95.475 87.9391Z" fill="#F7EDE2"/>
</svg>
