<svg width="14" height="18" viewBox="0 0 14 18" fill="none" xmlns="http://www.w3.org/2000/svg">
<g clip-path="url(#clip0_624_761)">
<path d="M3.17812 16.158V6.71219H0.177061V16.158H3.17812ZM1.67798 5.42175C2.7245 5.42175 3.37591 4.69642 3.37591 3.79001C3.35641 2.86315 2.72454 2.15796 1.69784 2.15796C0.671295 2.15796 0 2.86317 0 3.79001C0 4.69647 0.651248 5.42175 1.65838 5.42175H1.67788H1.67798ZM4.83919 16.158H7.84025V10.883C7.84025 10.6007 7.85974 10.3187 7.93899 10.1168C8.15595 9.5528 8.64974 8.96861 9.47876 8.96861C10.5647 8.96861 10.9992 9.83482 10.9992 11.1046V16.1579H14V10.7418C14 7.8404 12.5195 6.49043 10.545 6.49043C8.926 6.49043 8.21518 7.43713 7.82028 8.08193H7.84031V6.71199H4.83926C4.87864 7.59833 4.83926 16.1578 4.83926 16.1578L4.83919 16.158Z" fill="#FAFAFA"/>
</g>
<defs>
<clipPath id="clip0_624_761">
<rect width="14" height="17.6842" fill="white" transform="translate(0 0.157959)"/>
</clipPath>
</defs>
</svg>
